<?xml version="1.0" standalone="no"?>
<!DOCTYPE svg PUBLIC "-//W3C//DTD SVG 20010904//EN"
 "http://www.w3.org/TR/2001/REC-SVG-20010904/DTD/svg10.dtd">
<svg version="1.0" xmlns="http://www.w3.org/2000/svg"
 width="653.000000pt" height="382.000000pt" viewBox="0 0 653.000000 382.000000"
 preserveAspectRatio="xMidYMid meet">

<g transform="translate(0.000000,382.000000) scale(0.100000,-0.100000)"
fill="#000000" stroke="none">
<path d="M5661 3257 c-34 -50 -40 -51 -109 -26 -13 5 -26 9 -28 9 -3 0 -4 -26
-3 -57 l3 -58 -47 -23 -48 -22 22 -30 c12 -16 28 -31 36 -34 17 -7 17 -36 -1
-61 -7 -11 -16 -30 -20 -42 -7 -22 -5 -23 42 -23 56 0 67 -9 77 -63 4 -20 11
-40 16 -42 4 -3 27 8 50 24 44 32 45 32 97 -6 39 -29 48 -25 57 24 10 54 21
63 77 63 36 0 49 4 45 13 -3 6 -13 32 -23 56 l-17 44 27 19 c14 11 31 28 36
39 9 16 4 22 -37 41 l-47 23 3 57 2 57 -53 -15 c-58 -15 -53 -18 -104 52 l-20
28 -33 -47z"/>
<path d="M5017 2474 c3 -368 6 -670 7 -670 0 -1 302 -4 670 -7 l669 -5 -357
357 c-196 196 -354 360 -351 364 3 4 2 5 -2 2 -4 -3 -150 137 -324 311 l-318
318 6 -670z"/>
<path d="M1330 2860 c-24 -24 -25 -43 -5 -73 12 -20 13 -41 5 -138 -25 -276
-77 -419 -152 -419 -34 0 -86 28 -134 72 -39 35 -44 38 -27 13 60 -84 123
-128 181 -123 42 3 74 42 93 112 23 82 49 248 55 351 6 93 9 105 25 105 13 0
19 -7 19 -22 1 -44 20 -214 35 -303 30 -179 64 -245 125 -245 45 0 104 34 143
82 52 66 54 77 6 32 -143 -136 -220 -84 -265 179 -17 100 -23 286 -10 329 6
20 3 31 -13 47 -26 26 -55 27 -81 1z"/>
<path d="M5527 2853 c-12 -12 -7 -49 9 -69 14 -18 15 -18 4 5 -7 13 -10 34 -7
47 5 26 4 28 -6 17z"/>
<path d="M5593 2708 c25 -31 48 -66 52 -78 4 -12 9 -19 12 -16 9 8 -43 89 -78
121 -24 23 -21 17 14 -27z"/>
<path d="M5663 2565 c0 -22 2 -30 4 -17 2 12 2 30 0 40 -3 9 -5 -1 -4 -23z"/>
<path d="M1841 2506 c-10 -12 -10 -19 1 -35 12 -16 16 -17 32 -6 21 16 18 48
-5 53 -9 1 -21 -4 -28 -12z"/>
<path d="M860 2492 c0 -11 8 -27 19 -36 17 -15 19 -15 25 -1 13 36 7 55 -19
55 -18 0 -25 -5 -25 -18z"/>
<path d="M1827 2417 c-65 -100 -167 -348 -167 -408 0 -24 4 -29 25 -29 22 0
25 4 25 39 0 63 48 229 95 329 44 93 50 111 22 69z"/>
<path d="M925 2383 c54 -112 95 -243 110 -355 6 -43 9 -48 31 -48 23 0 24 2
18 38 -17 96 -118 335 -169 397 -9 11 -4 -4 10 -32z"/>
<path d="M1116 2401 c-3 -5 1 -22 9 -37 8 -16 15 -46 15 -66 0 -35 2 -38 28
-38 43 0 45 9 11 47 -16 19 -32 48 -36 64 -6 32 -18 45 -27 30z"/>
<path d="M1600 2390 c0 -21 -41 -93 -60 -105 -18 -11 0 -25 31 -25 28 0 29 2
29 43 0 23 7 53 16 65 15 22 12 42 -7 42 -5 0 -9 -9 -9 -20z"/>
<path d="M1350 1845 c0 -22 4 -26 23 -23 14 2 22 10 22 23 0 13 -8 21 -22 23
-19 3 -23 -1 -23 -23z"/>
<path d="M1242 1848 c5 -15 28 -18 29 -3 0 6 -7 12 -17 13 -10 3 -15 -1 -12
-10z"/>
<path d="M1475 1851 c-7 -12 12 -24 25 -16 11 7 4 25 -10 25 -5 0 -11 -4 -15
-9z"/>
<path d="M555 1814 c-138 -25 -235 -66 -235 -99 0 -28 28 -27 117 4 123 43
286 65 337 45 18 -7 21 -39 5 -50 -6 -3 -8 -17 -5 -30 5 -17 -16 -69 -79 -194
-87 -174 -101 -220 -66 -220 14 0 34 24 68 81 54 91 102 139 138 139 33 0 31
-15 -10 -80 -38 -58 -45 -109 -20 -130 22 -18 89 -7 133 23 l37 24 28 -30 c25
-28 31 -29 81 -24 59 6 150 45 196 84 62 51 29 57 -62 11 -64 -32 -157 -46
-164 -23 -2 6 22 21 52 34 75 32 124 79 124 118 0 40 -17 53 -67 53 -82 0
-171 -71 -188 -151 -7 -32 -33 -54 -77 -64 -46 -12 -46 18 1 87 59 88 53 128
-20 128 -22 0 -50 -10 -73 -25 -20 -13 -36 -21 -36 -17 0 4 29 61 65 126 67
124 75 146 51 146 -8 0 -32 10 -52 22 -48 28 -167 33 -279 12z m613 -326 c2
-9 -19 -30 -52 -52 -30 -20 -57 -36 -60 -36 -13 0 -4 25 20 57 38 50 85 66 92
31z"/>
<path d="M1803 1816 c-79 -36 -167 -146 -293 -367 -78 -136 -83 -148 -71 -167
18 -29 55 -8 90 51 l34 57 78 2 c44 1 89 2 101 2 20 1 22 -3 20 -41 -4 -47 22
-83 58 -83 24 0 76 25 103 48 16 14 17 13 11 -16 -6 -27 -4 -32 13 -32 27 0
48 26 88 109 24 49 44 77 67 91 18 11 36 20 41 20 16 0 5 -33 -27 -78 -41 -56
-53 -96 -36 -117 20 -24 59 -18 127 20 l63 35 0 -24 c0 -62 74 -72 151 -22 46
31 59 32 59 6 0 -42 60 -51 127 -19 42 20 45 21 64 3 29 -26 115 -30 159 -7
75 39 77 101 5 169 -38 37 -41 43 -28 57 40 39 -31 51 -74 12 l-28 -26 25 -17
c90 -61 119 -132 63 -153 -30 -11 -89 -4 -99 12 -3 6 1 18 10 28 15 17 22 51
10 51 -3 0 -24 -15 -47 -34 -54 -43 -85 -59 -103 -52 -21 8 -17 32 17 107 43
92 39 99 -61 99 -53 0 -80 4 -80 11 0 7 16 42 36 79 38 70 40 100 5 100 -15 0
-33 -25 -71 -95 -46 -85 -54 -95 -79 -95 -35 0 -56 -21 -39 -38 7 -7 18 -12
25 -12 16 0 16 -12 1 -44 -12 -28 -171 -116 -184 -103 -4 4 21 36 55 72 50 52
62 70 59 92 -4 37 -41 42 -103 14 -34 -15 -45 -17 -45 -7 0 26 -69 36 -88 13
-6 -7 -9 -23 -6 -34 10 -39 -135 -173 -172 -159 -21 8 -13 41 47 187 52 124
58 153 35 162 -25 10 -44 -16 -86 -113 -22 -52 -44 -98 -48 -102 -9 -9 -192
-23 -192 -14 0 10 99 167 138 219 64 84 132 109 178 66 26 -24 54 -19 54 9 0
27 -52 72 -91 77 -19 3 -48 -1 -66 -9z m727 -331 c0 -2 -8 -20 -17 -40 -28
-58 -173 -143 -173 -101 0 8 14 45 32 81 l32 65 63 0 c35 0 63 -2 63 -5z"/>
<path d="M3904 1820 c-14 -6 -35 -43 -69 -124 -46 -113 -50 -134 -23 -123 14
5 138 216 138 234 0 16 -22 22 -46 13z"/>
<path d="M4652 1799 c-168 -84 -322 -348 -272 -468 13 -33 63 -61 108 -61 46
0 149 35 187 64 42 32 55 33 55 2 0 -31 43 -66 82 -66 39 0 97 26 131 58 18
17 40 27 60 28 18 0 41 4 51 9 17 7 18 6 12 -11 -26 -61 -29 -74 -23 -80 19
-19 59 20 97 96 28 56 50 87 73 100 61 38 63 19 7 -64 -41 -60 -49 -93 -28
-114 20 -20 59 -13 125 23 35 19 66 35 68 35 2 0 -1 -14 -7 -31 -7 -21 -7 -34
0 -41 18 -18 37 -2 77 67 47 80 114 145 150 145 14 0 25 -5 25 -10 0 -6 -16
-41 -36 -79 -23 -44 -34 -78 -32 -97 3 -27 6 -29 44 -27 23 1 65 13 92 27 49
25 52 25 64 7 38 -53 101 -52 232 4 15 7 17 5 12 -13 -4 -11 -2 -23 4 -27 26
-16 52 10 95 95 34 67 53 94 76 106 49 25 52 4 9 -61 -49 -73 -54 -121 -14
-131 14 -4 41 0 62 8 59 23 182 106 182 123 0 22 -12 19 -110 -30 -49 -25 -95
-45 -101 -45 -6 0 17 30 50 66 45 50 61 74 61 96 0 47 -29 48 -131 4 -12 -5
-18 -1 -22 13 -4 15 -13 21 -34 21 -41 0 -57 -14 -50 -41 4 -16 -2 -39 -16
-64 -27 -48 -113 -96 -185 -103 -75 -7 -73 12 7 52 76 39 111 75 111 115 0 37
-17 51 -64 51 -78 0 -164 -64 -182 -134 -7 -27 -58 -68 -101 -81 -32 -9 -29 8
9 69 23 37 32 64 32 96 l1 45 -38 3 c-26 2 -52 -4 -84 -22 -48 -28 -57 -31
-49 -18 2 4 1 14 -4 22 -14 23 -40 2 -72 -56 -23 -43 -38 -55 -112 -94 -46
-25 -88 -42 -92 -37 -4 4 21 36 55 72 50 52 62 70 59 92 -4 37 -41 42 -103 14
-34 -15 -45 -17 -45 -7 0 27 -69 36 -89 12 -6 -7 -9 -20 -6 -28 7 -19 -68 -88
-95 -88 -17 0 -19 5 -14 44 6 39 3 48 -19 70 -35 35 -110 37 -155 4 -265 -193
-314 -216 -363 -167 -18 18 -20 29 -15 66 18 131 221 374 290 347 24 -9 19
-36 -14 -85 -35 -53 -36 -56 -10 -64 30 -10 69 20 91 68 55 122 -24 174 -159
106z m1286 -312 c2 -10 -17 -29 -50 -52 -44 -29 -54 -32 -56 -19 -5 21 27 65
59 81 29 15 43 12 47 -10z m-1008 -27 c9 -35 -7 -76 -42 -105 -54 -45 -95 -24
-85 43 12 75 112 124 127 62z"/>
<path d="M573 1708 c-64 -69 -251 -412 -240 -441 9 -24 40 -21 66 7 30 32 223
426 217 442 -8 20 -19 17 -43 -8z"/>
<path d="M2605 1636 c-19 -28 -15 -41 14 -49 28 -7 63 20 59 46 -5 34 -52 35
-73 3z"/>
<path d="M3015 1532 c-91 -58 -137 -190 -85 -242 36 -36 85 -24 153 38 25 24
27 24 27 6 0 -30 28 -64 54 -64 12 0 42 13 67 28 l45 29 -1 -26 c0 -49 34 -32
77 39 64 107 150 177 173 140 3 -5 -10 -39 -30 -75 -26 -45 -35 -74 -33 -97 3
-31 5 -33 40 -32 70 2 218 93 218 135 0 25 -4 24 -53 -10 -59 -40 -128 -74
-135 -66 -4 3 10 38 31 76 27 49 37 79 35 102 -3 29 -6 32 -41 35 -26 2 -52
-4 -84 -22 -55 -31 -53 -31 -53 -6 0 20 -16 26 -36 12 -6 -4 -23 -30 -37 -58
-48 -94 -167 -174 -167 -111 0 12 11 52 24 90 26 73 24 80 -29 84 -16 2 -52 5
-80 8 -39 5 -57 2 -80 -13z m99 -64 c20 -33 -80 -147 -117 -132 -63 24 5 159
76 152 17 -2 35 -11 41 -20z"/>
<path d="M3982 1534 c-32 -22 -26 -45 20 -79 51 -37 73 -84 53 -111 -19 -27
-86 -25 -125 5 -41 30 -63 15 -40 -27 30 -52 103 -67 180 -36 45 18 60 39 60
80 0 26 -35 94 -48 94 -4 0 -16 7 -26 15 -16 12 -17 17 -6 30 31 37 -23 61
-68 29z"/>
<path d="M3069 1168 c-65 -88 -74 -127 -40 -169 14 -18 29 -24 59 -24 90 0
108 71 43 168 l-38 58 -24 -33z"/>
<path d="M552 1101 c-22 -32 -42 -45 -112 -71 -69 -27 -95 -43 -141 -90 -62
-61 -77 -100 -65 -165 8 -42 56 -91 116 -119 62 -29 239 -30 320 -2 102 34
184 97 221 168 57 111 -32 214 -209 241 -77 12 -77 12 -80 45 -4 42 -16 41
-50 -7z"/>
</g>
</svg>
